<?xml version="1.0" encoding="iso-8859-1"?>
<!-- Uploaded to: SVG Repo, www.svgrepo.com, Generator: SVG Repo Mixer Tools -->
<!DOCTYPE svg PUBLIC "-//W3C//DTD SVG 1.1//EN" "http://www.w3.org/Graphics/SVG/1.1/DTD/svg11.dtd">
<svg version="1.1" id="Capa_1" xmlns="http://www.w3.org/2000/svg" xmlns:xlink="http://www.w3.org/1999/xlink" 
	 viewBox="0 0 97.292 97.292" xml:space="preserve">
<g id="XMLID_446_">
	
		<rect id="XMLID_405_" x="10.809" y="60.07" transform="matrix(0.8826 -0.4702 0.4702 0.8826 -27.2543 31.1109)" style="fill:#54372A;" width="75.698" height="20.098"/>
	
		<ellipse id="XMLID_406_" transform="matrix(0.8826 -0.4702 0.4702 0.8826 -39.5512 17.4849)" style="fill:#E0B75A;" cx="15.23" cy="87.926" rx="6.387" ry="10.049"/>
	
		<ellipse id="XMLID_434_" transform="matrix(0.8826 -0.4702 0.4702 0.8826 -14.9656 44.7308)" style="fill:#54372A;" cx="82.062" cy="52.324" rx="6.387" ry="10.048"/>
	<g id="XMLID_445_">
		
			<rect id="XMLID_436_" x="10.786" y="60.07" transform="matrix(-0.8826 -0.4702 0.4702 -0.8826 58.5909 154.871)" style="fill:#54372A;" width="75.698" height="20.098"/>
		
			<ellipse id="XMLID_435_" transform="matrix(-0.8826 -0.4702 0.4702 -0.8826 113.1488 204.1108)" style="fill:#E0B75A;" cx="82.062" cy="87.926" rx="6.387" ry="10.049"/>
		
			<ellipse id="XMLID_433_" transform="matrix(-0.8826 -0.4702 0.4702 -0.8826 4.0689 105.6651)" style="fill:#54372A;" cx="15.23" cy="52.324" rx="6.387" ry="10.049"/>
	</g>
	<path id="XMLID_373_" style="fill:#E55928;" d="M29.888,70.721c0,0-9.789-15.456-1.202-25.589
		C37.272,35,39.505,30.707,40.707,25.211c0,0,15.971,9.274,13.911,17.174l3.435-5.378c0,0,25.898,24.842,7.453,37.006
		c0,0-6.594-4.321-6.766-7.585c0,0-2.747,2.748-2.061,6.183c0,0-5.667-14.94-12.88-15.8c0,0,6.869,8.759-0.343,14.941
		c0,0-3.091-1.718-1.546-5.839c0,0-5.546,1.603-8.354,8.1L29.888,70.721z"/>
	<path id="XMLID_372_" style="fill:#E88F27;" d="M64.644,28.467C50.257,16.464,53.667,5.98,55.989,1.802
		c0.483-0.87-0.239-1.924-1.225-1.79c-4.748,0.645-14.775,3.965-17.102,20.352c-0.005,0.034-0.005,0.068-0.009,0.102
		c-2.955-2.596-7.175-3.076-10.466-2.96c-1.253,0.044-1.622,1.754-0.496,2.305c13.335,6.531-3.683,19.44-6.799,30.436
		c-5.486,19.358,13.664,23.765,13.664,23.765c-5.669-7.545-2.732-20.155,3.123-26.071c5.257-5.313,5.972-9.594,5.46-15.397
		c-0.091-1.039,1.097-1.723,1.931-1.096c5.3,3.985,7.415,13.127,5.249,20.114c-0.274,0.885,0.51,1.745,1.415,1.545
		c1.925-0.426,4.692-1.574,6.118-4.662c0.263-0.569,0.899-0.886,1.491-0.681c7.586,2.635,11.245,15.936,7.164,26.248
		C76.069,74.012,85.843,46.151,64.644,28.467z"/>
	<path id="XMLID_448_" style="opacity:0.41;fill:#302F2A;" d="M86.787,79.057c-0.007-0.004-0.016-0.006-0.023-0.01l0.001-0.002
		L71.53,70.93c0.727-0.778,1.414-1.674,2.036-2.694l13.221-7.043c3.113-1.658,3.522-6.974,0.913-11.872
		c-2.609-4.898-7.248-7.524-10.362-5.866l-1.688,0.899c-1.794-5.539-5.252-11.088-11.005-15.888
		C50.257,16.464,53.667,5.98,55.989,1.802C42.803,13.71,42.811,19.461,42.811,38.443c0,6.682,5.246,14.611,5.246,20.61
		c0,11.151,0,22.771,0,22.771l0.589-0.313l28.669,15.272l0.001-0.002c0.008,0.004,0.014,0.01,0.021,0.014
		c3.113,1.658,7.752-0.968,10.362-5.866C90.309,86.031,89.9,80.715,86.787,79.057z"/>
</g>
</svg>